<?xml version="1.0" encoding="UTF-8" standalone="no"?>
<svg
   version="1.0"
   width="1000.000000pt"
   height="935.000000pt"
   viewBox="0 0 1000.000000 935.000000"
   preserveAspectRatio="xMidYMid meet"
   id="svg18"
   sodipodi:docname="sidebar-logo_alternate-white1.svg"
   inkscape:version="1.3.2 (091e20e, 2023-11-25, custom)"
   xmlns:inkscape="http://www.inkscape.org/namespaces/inkscape"
   xmlns:sodipodi="http://sodipodi.sourceforge.net/DTD/sodipodi-0.dtd"
   xmlns="http://www.w3.org/2000/svg"
   xmlns:svg="http://www.w3.org/2000/svg">
  <defs
     id="defs18" />
  <sodipodi:namedview
     id="namedview18"
     pagecolor="#ffffff"
     bordercolor="#000000"
     borderopacity="0.25"
     inkscape:showpageshadow="2"
     inkscape:pageopacity="0.0"
     inkscape:pagecheckerboard="0"
     inkscape:deskcolor="#d1d1d1"
     inkscape:document-units="pt"
     inkscape:zoom="1.1671123"
     inkscape:cx="666.60252"
     inkscape:cy="623.33333"
     inkscape:window-width="2880"
     inkscape:window-height="1711"
     inkscape:window-x="-9"
     inkscape:window-y="-9"
     inkscape:window-maximized="1"
     inkscape:current-layer="svg18" />
  <g
     transform="translate(0.000000,935.000000) scale(0.100000,-0.100000)"
     fill="#000000"
     stroke="none"
     id="g18"
     style="fill:#ffffff;fill-opacity:1">
    <path
       d="M4131 9250 c-24 -11 -79 -55 -122 -97 -118 -114 -122 -128 -125 -427 -2 -132 -7 -243 -11 -247 -4 -4 -80 -33 -168 -64 -88 -30 -176 -62 -195 -70 -19 -7 -64 -25 -100 -39 -127 -48 -167 -64 -300 -119 -574 -235 -1152 -545 -1560 -837 -414 -295 -812 -688 -1026 -1010 -246 -370 -383 -723 -440 -1130 -20 -143 -20 -434 0 -585 33 -247 110 -496 225 -730 199 -402 507 -746 906 -1012 253 -169 641 -381 960 -525 33 -15 96 -44 140 -64 44 -20 190 -83 325 -140 135 -58 254 -109 265 -114 11 -5 76 -34 145 -64 387 -167 649 -294 769 -373 202 -135 406 -376 556 -658 93 -176 210 -490 256 -687 26 -113 38 -139 39 -83 0 22 -7 185 -15 362 -23 488 -66 744 -169 1000 -137 342 -303 525 -1011 1115 -286 238 -624 500 -815 633 -236 164 -452 382 -604 610 -173 261 -276 515 -332 820 -27 150 -25 432 5 580 63 305 177 505 465 816 476 511 1151 942 1731 1103 72 20 135 43 142 52 28 37 24 210 -8 378 -12 63 -12 188 1 220 13 35 54 60 85 52 56 -14 89 -108 151 -431 73 -382 143 -541 248 -560 19 -4 108 3 198 14 207 26 306 26 505 0 196 -26 233 -23 280 22 74 72 115 193 193 574 48 238 74 320 111 357 36 36 61 35 93 -3 24 -28 26 -37 26 -132 0 -56 -7 -138 -15 -182 -8 -44 -14 -126 -15 -182 0 -134 4 -138 165 -183 301 -83 659 -255 982 -471 369 -247 730 -579 948 -871 132 -176 205 -332 252 -531 25 -104 27 -129 27 -342 0 -213 -2 -239 -26 -350 -46 -206 -90 -330 -184 -519 -150 -300 -421 -619 -678 -799 -414 -288 -1143 -882 -1470 -1197 -161 -155 -295 -327 -369 -475 -105 -210 -180 -533 -206 -880 -12 -159 -25 -625 -18 -625 3 0 13 33 22 72 156 659 476 1175 880 1418 123 74 462 232 845 394 113 48 230 98 260 111 30 13 109 47 175 76 66 28 158 69 203 90 46 22 86 39 88 39 10 0 418 203 504 250 415 229 648 391 859 595 410 396 650 853 738 1400 24 151 24 496 0 650 -134 848 -661 1569 -1610 2204 -293 196 -665 402 -1012 561 -342 157 -636 276 -990 401 -77 28 -150 54 -161 59 -22 8 -22 14 -26 262 -4 233 -6 257 -26 301 -28 63 -145 177 -217 212 -48 24 -64 27 -118 23 -80 -7 -109 -22 -210 -111 l-81 -72 -156 -6 c-168 -8 -195 -12 -254 -42 -42 -22 -54 -20 -156 18 -32 13 -87 19 -195 22 -95 3 -157 10 -170 18 -11 7 -51 40 -89 75 -38 34 -87 71 -110 81 -55 25 -148 25 -205 -1z m174 -148 c66 -23 68 -42 7 -70 -111 -50 -241 -167 -292 -263 -17 -32 -35 -59 -39 -59 -13 0 -21 162 -11 230 10 67 28 95 89 132 80 50 159 60 246 30z m1573 3 c76 -32 130 -75 146 -116 18 -45 23 -289 6 -289 -5 0 -19 19 -31 43 -40 79 -79 126 -154 187 -65 53 -152 107 -196 122 -24 8 8 36 60 52 61 19 123 19 169 1z m-603 -155 c260 -30 502 -138 560 -250 57 -111 12 -317 -153 -702 -44 -103 -117 -295 -161 -428 -90 -269 -124 -348 -175 -404 -40 -43 -37 -43 -151 -2 -61 22 -86 25 -195 25 -108 0 -134 -3 -195 -25 -38 -13 -77 -27 -86 -30 -26 -9 -74 42 -117 123 -22 43 -76 186 -120 318 -44 132 -110 310 -147 395 -140 324 -185 473 -185 610 0 103 20 145 95 203 107 81 255 136 440 162 111 16 468 19 590 5z"
       id="path1"
       style="fill:#ffffff;fill-opacity:1" />
    <path
       d="M4705 8870 c-122 -20 -192 -37 -277 -69 -141 -54 -156 -98 -118 -361 32 -227 61 -341 142 -544 36 -90 218 -460 223 -454 2 2 -2 26 -9 53 -19 69 -84 328 -101 400 -46 196 -74 434 -75 633 0 109 1 114 26 137 57 53 309 109 484 108 177 -1 427 -56 487 -108 l28 -23 -2 -144 c-2 -155 -21 -345 -52 -503 -22 -108 -28 -137 -90 -380 -22 -88 -38 -161 -36 -163 8 -8 192 380 237 498 109 284 170 664 123 764 -62 131 -610 217 -990 156z"
       id="path2"
       style="fill:#ffffff;fill-opacity:1" />
    <path
       d="M3225 6765 c-113 -67 -493 -357 -494 -377 -1 -9 1322 -16 1358 -8 20 5 33 29 81 145 31 77 69 166 83 199 15 32 24 62 21 67 -3 5 -220 9 -497 9 l-492 0 -60 -35z"
       id="path3"
       style="fill:#ffffff;fill-opacity:1" />
    <path
       d="M5724 6789 c-2 -4 11 -38 30 -75 18 -38 57 -128 86 -201 45 -114 56 -132 79 -138 33 -8 1351 -3 1356 5 9 14 -317 270 -468 368 l-71 45 -504 1 c-277 1 -506 -2 -508 -5z"
       id="path4"
       style="fill:#ffffff;fill-opacity:1" />
    <path
       d="M2544 6200 c-44 -17 -334 -368 -334 -403 0 -4 385 -6 857 -5 l856 3 23 85 c13 47 41 138 62 202 22 64 37 119 34 122 -9 10 -1475 5 -1498 -4z"
       id="path5"
       style="fill:#ffffff;fill-opacity:1" />
    <path
       d="M5964 6198 c-3 -4 15 -70 40 -145 25 -76 52 -164 60 -196 8 -33 16 -61 19 -63 8 -8 1712 -4 1712 3 0 19 -162 227 -266 341 l-55 62 -753 2 c-414 2 -755 0 -757 -4z"
       id="path6"
       style="fill:#ffffff;fill-opacity:1" />
    <path
       d="M2067 5553 c-48 -96 -106 -283 -110 -348 l-2 -40 904 -3 c544 -1 909 2 914 7 5 5 18 54 28 108 10 54 27 140 39 192 11 52 20 98 20 103 0 4 -400 8 -890 8 l-889 0 -14 -27z"
       id="path7"
       style="fill:#ffffff;fill-opacity:1" />
    <path
       d="M6147 5573 c-3 -5 4 -48 15 -98 11 -49 30 -139 42 -200 l21 -110 913 -3 912 -2 0 28 c0 65 -87 333 -123 380 -7 9 -198 12 -893 12 -485 0 -885 -3 -887 -7z"
       id="path8"
       style="fill:#ffffff;fill-opacity:1" />
    <path
       d="M1945 4950 c-8 -13 12 -163 31 -225 38 -130 48 -161 57 -172 7 -10 191 -13 858 -13 l849 0 0 133 c0 74 3 168 6 210 l7 77 -901 0 c-581 0 -903 -4 -907 -10z"
       id="path9"
       style="fill:#ffffff;fill-opacity:1" />
    <path
       d="M6257 4953 c-2 -5 -1 -71 3 -148 4 -77 5 -165 2 -196 -3 -35 0 -59 6 -63 16 -9 1694 -8 1703 1 24 26 107 382 93 404 -6 11 -1801 12 -1807 2z"
       id="path10"
       style="fill:#ffffff;fill-opacity:1" />
    <path
       d="M2133 4327 c-10 -16 179 -330 235 -389 l26 -28 708 0 c684 0 708 1 708 19 0 10 -5 43 -10 72 -6 30 -19 115 -30 189 -11 74 -23 136 -27 137 -21 7 -1606 7 -1610 0z"
       id="path11"
       style="fill:#ffffff;fill-opacity:1" />
    <path
       d="M6236 4198 c-10 -73 -25 -164 -32 -201 -8 -38 -12 -73 -8 -78 3 -5 298 -9 714 -9 l709 0 40 54 c77 103 211 330 211 356 0 7 -255 10 -808 10 l-808 0 -18 -132z"
       id="path12"
       style="fill:#ffffff;fill-opacity:1" />
    <path
       d="M2560 3694 c0 -15 345 -369 384 -393 33 -20 45 -21 519 -21 280 0 488 4 491 9 5 8 -90 400 -99 409 -2 2 -294 4 -649 5 -448 1 -646 -1 -646 -9z"
       id="path13"
       style="fill:#ffffff;fill-opacity:1" />
    <path
       d="M6775 3700 l-629 -5 -52 -202 c-28 -111 -49 -205 -46 -208 3 -3 227 -5 498 -5 l492 0 61 51 c78 65 352 359 345 371 -3 4 -13 7 -22 6 -9 -2 -300 -5 -647 -8z"
       id="path14"
       style="fill:#ffffff;fill-opacity:1" />
    <path
       d="M3200 3071 c0 -9 199 -179 391 -333 l96 -78 236 0 c131 0 237 4 237 8 0 12 -125 385 -133 400 -6 9 -101 12 -418 12 -234 0 -409 -4 -409 -9z"
       id="path15"
       style="fill:#ffffff;fill-opacity:1" />
    <path
       d="M5976 3064 c-9 -8 -16 -21 -16 -28 0 -7 -27 -94 -60 -192 -33 -98 -60 -180 -60 -181 0 -2 107 -3 238 -3 273 0 228 -14 398 127 207 171 329 275 332 284 2 5 -166 9 -406 9 -360 0 -413 -2 -426 -16z"
       id="path16"
       style="fill:#ffffff;fill-opacity:1" />
    <path
       d="M3945 2451 c-3 -2 19 -24 48 -50 29 -25 130 -122 225 -216 95 -93 177 -172 183 -173 5 -2 4 8 -2 25 -19 47 -74 193 -114 298 -20 55 -41 104 -45 109 -8 8 -288 15 -295 7z"
       id="path17"
       style="fill:#ffffff;fill-opacity:1" />
    <path
       d="M5680 2230 c-45 -122 -80 -223 -78 -225 2 -3 45 36 94 86 49 51 151 152 228 225 l138 134 -150 0 -150 0 -82 -220z"
       id="path18"
       style="fill:#ffffff;fill-opacity:1" />
  </g>
</svg>
